<?xml version="1.0" encoding="UTF-8"?>
<svg id="Layer_2" data-name="Layer 2" xmlns="http://www.w3.org/2000/svg" viewBox="0 0 689.4 133.38">
  <defs>
    <style>
      .cls-1 {
        stroke-width: 0px;
      }
    </style>
  </defs>
  <g id="Layer_1-2" data-name="Layer 1">
    <path class="cls-1" d="m620.21,130.34V29.32h-37.19V2.5h106.38v26.82h-37.55v101.02h-31.65Z"/>
    <path class="cls-1" d="m523.75,133.2c-37.55,0-63.12-28.07-63.12-66.33S485.48,0,523.57,0c14.84,0,27.36,4.29,36.47,11.26,11.09,8.4,17.52,20.92,19.13,35.22h-31.65c-1.61-11.44-10.55-20.2-24.14-20.2-20.74,0-30.57,17.34-30.57,40.59s11.8,40.41,30.75,40.41c14.12,0,23.42-8.94,24.85-21.28h31.65c-.89,12.69-6.61,24.32-15.38,32.72-9.83,9.48-22.89,14.48-40.94,14.48Z"/>
    <path class="cls-1" d="m406.65,132.67c-30.22,0-44.7-16.45-44.7-40.77v-11.26h28.79v10.55c0,10.91,5.19,15.38,13.95,15.38,9.3,0,13.23-5.72,13.23-15.02V2.5h31.65v89.76c0,11.44-2.86,20.74-9.12,27.71-7.15,7.87-18.77,12.7-33.79,12.7Z"/>
    <path class="cls-1" d="m245.81,130.34V2.5h61.68c13.23,0,23.06,3.22,29.86,8.76,7.33,6.08,11.08,14.3,11.08,24.5,0,12.69-6.62,20.74-17.88,25.03v.54c13.95,4.29,22.89,16.09,22.89,31.29,0,12.87-4.65,22.17-13.05,28.61-7.51,5.9-18.06,9.12-31.47,9.12h-63.12Zm31.29-25.39h28.25c10.37,0,16.81-5.9,16.81-15.02,0-10.19-7.51-15.38-17.17-15.38h-27.89v30.4Zm0-51.85h25.75c9.12,0,15.38-4.47,15.38-12.87s-5.9-12.69-15.2-12.69h-25.93v25.57Z"/>
    <path class="cls-1" d="m175.98,132.67c-35.76,0-53.64-17.52-53.64-47.38V2.5h31.65v83.86c0,12.52,6.44,20.92,21.99,20.92,14.66,0,21.63-8.94,21.63-21.46V2.5h31.65v82.78c0,29.5-17.7,47.38-53.28,47.38Z"/>
    <path class="cls-1" d="m57.04,133.38C23.06,133.38.72,118.36,0,90.11h31.83c1.43,12.87,9.83,18.24,25.03,18.24,10.37,0,20.56-3.75,20.56-13.41,0-10.19-10.37-12.34-27.89-16.63C27.36,73.13,3.93,66.33,3.93,39.51S26.1.18,54.71.18s49.17,12.52,50.42,39.34h-30.93c-1.25-9.83-8.76-15.38-20.56-15.38-11.09,0-18.42,4.83-18.42,11.98,0,8.94,9.83,11.09,28.96,15.38,23.78,5.54,45.24,12.87,45.24,40.23s-22.89,41.66-52.39,41.66Z"/>
  </g>
</svg>