<?xml version="1.0" encoding="UTF-8"?>
<svg id="Layer_2" data-name="Layer 2" xmlns="http://www.w3.org/2000/svg" viewBox="0 0 613.63 400.5">
  <defs>
    <style>
      .cls-1 {
        stroke-width: 0px;
      }
    </style>
  </defs>
  <g id="Layer_1-2" data-name="Layer 1">
    <g>
      <path class="cls-1" d="M194.6,319.63c-30.6-45.79-129.22-178.4-129.22-178.4-5.47-7.55-9.18-16.28-10.49-25.52-1.21-8.55-.58-18.43,5.72-26.08,14-17,50.11-2.21,63.89,6,70.21,41.82,245.8,170.29,268.11,187,7.81,5.85,22,8,36,1s-5.95-34.77-17.96-51.24c-12.02-16.47-98.08-145.37-138.85-186.91C250.17,23.45,210.82-1.69,156.97.09S52.83,33.4,32.81,64.62C11.85,97.3-2.35,127.03.32,200.63s10.99,112.83,40.05,153.7c20.95,29.46,70.76,48.95,98.8,45.84s49.82-11.77,59.19-32.49c8.05-17.82,4.13-36.26-3.76-48.06Z"/>
      <path class="cls-1" d="M466.56,234.09c4.63,16.78,23.56,45.74,47.82,50.59s45.05,11.09,61.68,7.62c16.63-3.47,39.51-23.56,37.43-58.22s-18.71-88.02-65.15-85.94-60.3,18.71-66.54,28.42-21.15,36.1-15.25,57.53Z"/>
    </g>
  </g>
</svg>