<?xml version="1.0" encoding="UTF-8"?>
<svg id="Layer_2" data-name="Layer 2" xmlns="http://www.w3.org/2000/svg" viewBox="0 0 291.97 281.07">
  <defs>
    <style>
      .cls-1 {
        fill: #000000;
      }
    </style>
  </defs>
  <g id="Layer_2-2" data-name="Layer 2">
    <g id="Layer_1-2" data-name="Layer 1-2">
      <path class="cls-1" d="m246.1,184.58c15.23-2.02,30.57-2.63,45.87-3.81v-2.46c-1.6-1.09-3.19-2.19-4.8-3.27-11.13-7.51-21.66-15.82-32.13-24.2-1.75-1.4-1.51-2.47.41-3.38.65-.31,1.3-.6,1.95-.9,9.95-4.59,19.9-9.17,29.84-13.8,1.25-.58,2.94-1.1,2.68-2.92-.23-1.6-1.89-1.62-3.11-2.07-8.46-3.18-17.31-4.98-26.03-7.23-3.17-.82-3.41-1.49-1.36-4.09,5.14-6.51,10.38-12.94,15.51-19.46,4.46-5.67,4.06-6.58-3.27-7.75-6.87-1.1-13.75-2.16-20.63-3.21-3.94-.61-4.54-1.67-2.52-4.97,4.91-8.04,9.21-16.45,14.64-24.17.55-.78,1.69-1.62,1.01-2.68-.69-1.07-1.89-.33-2.85-.17-8.51,1.36-16.7,4.09-25.14,5.78-4.25.85-4.8.36-3.78-3.89,3.75-15.54,8.58-30.77,12.83-46.17.26-.94,1.07-2.1.16-2.88-1.11-.95-2.1.24-2.97.81-7.99,5.18-15.92,10.46-23.92,15.61-4.99,3.21-10.08,6.28-15.15,9.37-1.72,1.05-2.42.56-2.15-1.5.24-1.82.35-3.67.37-5.5.02-1.51.34-3.56-1.04-4.26-1.68-.86-2.93.98-4.11,2.02-5.39,4.72-10.74,9.49-16.05,14.31-1.8,1.64-3.14,1.46-3.09-1.01.1-5.7-1.52-11.15-2.05-16.74-.58-6.14-2.29-12.06-3.43-18.09-.15-.79-.31-1.72-1.31-1.88-.97-.16-1.43.65-1.92,1.3-.43.57-.81,1.18-1.2,1.78-6.25,9.52-11.4,19.66-16.93,29.59-.74,1.33-.85,3.72-2.81,3.62-1.76-.09-2.12-2.3-2.85-3.7-4.07-7.81-8.28-15.55-12.98-23-.47-.75-.9-1.81-1.98-1.69-1.1.12-1.24,1.27-1.54,2.09-1.69,4.61-3.62,9.14-4.61,13.99-.34,1.67-.53,3.93-2.34,4.36-1.89.45-2.84-1.74-3.9-3-4.35-5.17-8.52-10.48-12.88-15.64-1-1.18-1.85-3.48-3.56-2.91-1.76.59-1.32,2.97-1.44,4.63-.63,9.08-1.08,18.18-2.32,27.21-.44,3.19-.81,3.3-3.42,1.34-6.06-4.55-12.12-9.1-18.22-13.59-.92-.68-1.84-2.14-3.14-1.29-1.18.78-.55,2.25-.36,3.43.89,5.66,1.83,11.32,2.68,16.99.39,2.61-.34,3.33-2.46,2.46-8.91-3.64-17.82-7.25-26.67-11.02-6.59-2.81-13.18-5.61-20.04-7.68-.66-.2-1.37-.74-1.99-.06-.56.62-.25,1.35.02,2.02.2.47.43.93.64,1.39,6.88,15.31,15.25,29.95,21.02,45.77.78,2.15,3.17,4.7,1.75,6.43-1.43,1.73-4.61.6-7.03.35-8.14-.85-16.3-1.5-24.5-1.55-1.01,0-2.24-.14-2.72.96-.45,1.02.56,1.66,1.19,2.28,6.85,6.77,13.66,13.57,20.61,20.24,1.79,1.72,1.45,2.74-.46,3.67-2.85,1.39-5.69,2.86-8.65,3.97-7.67,2.87-15.42,5.54-23.11,8.35-.97.35-2.43.53-2.36,2.01.05,1.15,1.19,1.58,2.09,2.05,4.08,2.14,8.24,4.14,12.24,6.42,6.31,3.6,12.53,7.37,18.77,11.11,1.47.88,2.69,2.04.54,3.45-7.61,5.02-14.82,10.62-22.74,15.17-1.34.77-3.76,1.21-3.44,2.91.3,1.58,2.72,1.41,4.28,1.75,10.61,2.28,21.37,3.86,31.73,7.23,3.38,1.1,3.58,1.66,1.55,4.7-3.41,5.11-6.86,10.2-10.21,15.34-1.63,2.49-1.27,3.04,1.61,3.51,4.07.65,8.17.42,12.27.51,3.71.08,3.95.6,2.09,3.91-11.14,19.87-24.88,38.03-37.55,56.89-4.06,6.05-7.75,12.3-11.64,18.44-.43.68-1.1,1.48-.41,2.22.79.85,1.49-.14,2.13-.5,3.58-2,7.23-3.88,10.67-6.1,17.58-11.3,35.08-22.71,52.65-34.02,7.41-4.77,15.03-9.19,22.81-13.33,1.55-.82,3.2-1.69,3.33,1.26.26,5.93,1.4,11.79,1.33,17.76-.03,2.65.41,5.3.71,7.95.27,2.32,1.4,3.16,3.49,1.68,1.92-1.36,3.8-2.78,5.64-4.24,7.71-6.13,15.41-12.24,25.22-14.85,2.11-.56,3.42-.35,4.62,1.57,3.04,4.86,6.28,9.59,9.37,14.41,1.42,2.21,2.69,2.21,4.1.05,2.69-4.11,5.36-8.24,8.13-12.3,2.1-3.08,2.81-3.07,5.27-.26.34.39.65.79.97,1.19,5.74,7.21,11.49,14.41,17.23,21.62.57.71,1.08,1.68,2.14,1.51,1.17-.19,1.05-1.37,1.27-2.21.18-.69.27-1.41.39-2.11,1.59-9.08,2.39-18.26,3.17-27.44.57-6.77,1.14-7,6.85-3.42,3.82,2.39,7.68,4.7,11.56,6.99,2.05,1.21,3.11.47,3.03-1.86-.07-2.15-.13-4.3-.37-6.43-.36-3.24.12-3.7,3.2-2.97,5.98,1.4,11.94,2.95,17.98,4.03,5.12.92,5.51.31,4.05-4.61-1.37-4.61-2.92-9.17-4.19-13.81-.85-3.1-.2-3.64,3.04-3.13,3.84.61,7.69,1.19,11.53,1.78,4.05.62,8.09,1.24,12.14,1.85.8.12,1.71.33,2.19-.58.34-.66-.26-1.13-.62-1.6-4.61-5.91-8.32-12.42-12.5-18.61-3.11-4.61-3.21-4.65,2.39-5.39v-.03Zm-80.02,44.95l6.54,4.77c-.71-.02-1.47-.25-2.26-.74-1.69-1.05-3.26-2.28-4.28-4.03Z"/>
    </g>
  </g>
</svg>